<svg width="215" height="41" viewBox="0 0 215 41" fill="none" xmlns="http://www.w3.org/2000/svg">
<path d="M31.0737 19.275C31.0737 17.575 31.4654 16.05 32.2487 14.7C33.0487 13.35 34.1237 12.3 35.4737 11.55C36.8404 10.7833 38.3321 10.4 39.9487 10.4C41.7987 10.4 43.4404 10.8583 44.8737 11.775C46.3237 12.675 47.3737 13.9583 48.0237 15.625H44.5987C44.1487 14.7083 43.5237 14.025 42.7237 13.575C41.9237 13.125 40.9987 12.9 39.9487 12.9C38.7987 12.9 37.7737 13.1583 36.8737 13.675C35.9737 14.1917 35.2654 14.9333 34.7487 15.9C34.2487 16.8667 33.9987 17.9917 33.9987 19.275C33.9987 20.5583 34.2487 21.6833 34.7487 22.65C35.2654 23.6167 35.9737 24.3667 36.8737 24.9C37.7737 25.4167 38.7987 25.675 39.9487 25.675C40.9987 25.675 41.9237 25.45 42.7237 25C43.5237 24.55 44.1487 23.8667 44.5987 22.95H48.0237C47.3737 24.6167 46.3237 25.9 44.8737 26.8C43.4404 27.7 41.7987 28.15 39.9487 28.15C38.3154 28.15 36.8237 27.775 35.4737 27.025C34.1237 26.2583 33.0487 25.2 32.2487 23.85C31.4654 22.5 31.0737 20.975 31.0737 19.275ZM54.5097 12.925V18.025H60.5097V20.35H54.5097V25.675H61.2597V28H51.6597V10.6H61.2597V12.925H54.5097ZM74.095 28L70.095 21.05H67.92V28H65.07V10.625H71.07C72.4033 10.625 73.5283 10.8583 74.445 11.325C75.3783 11.7917 76.07 12.4167 76.52 13.2C76.9867 13.9833 77.22 14.8583 77.22 15.825C77.22 16.9583 76.8867 17.9917 76.22 18.925C75.57 19.8417 74.5617 20.4667 73.195 20.8L77.495 28H74.095ZM67.92 18.775H71.07C72.1367 18.775 72.9367 18.5083 73.47 17.975C74.02 17.4417 74.295 16.725 74.295 15.825C74.295 14.925 74.0283 14.225 73.495 13.725C72.9617 13.2083 72.1533 12.95 71.07 12.95H67.92V18.775ZM92.3909 10.625V12.95H87.7659V28H84.9159V12.95H80.2659V10.625H92.3909ZM98.4272 10.625V28H95.5772V10.625H98.4272ZM112.694 10.625V12.95H105.319V18.075H111.069V20.4H105.319V28H102.469V10.625H112.694ZM128.51 10.625L122.76 21.7V28H119.91V21.7L114.135 10.625H117.31L121.335 19.15L125.36 10.625H128.51ZM133.922 10.625V28H131.072V10.625H133.922ZM152.239 28H149.389L140.814 15.025V28H137.964V10.6H140.814L149.389 23.55V10.6H152.239V28ZM168.856 15.625C168.406 14.7583 167.781 14.1083 166.981 13.675C166.181 13.225 165.256 13 164.206 13C163.056 13 162.031 13.2583 161.131 13.775C160.231 14.2917 159.523 15.025 159.006 15.975C158.506 16.925 158.256 18.025 158.256 19.275C158.256 20.525 158.506 21.6333 159.006 22.6C159.523 23.55 160.231 24.2833 161.131 24.8C162.031 25.3167 163.056 25.575 164.206 25.575C165.756 25.575 167.015 25.1417 167.981 24.275C168.948 23.4083 169.54 22.2333 169.756 20.75H163.231V18.475H172.806V20.7C172.623 22.05 172.14 23.2917 171.356 24.425C170.59 25.5583 169.581 26.4667 168.331 27.15C167.098 27.8167 165.723 28.15 164.206 28.15C162.573 28.15 161.081 27.775 159.731 27.025C158.381 26.2583 157.306 25.2 156.506 23.85C155.723 22.5 155.331 20.975 155.331 19.275C155.331 17.575 155.723 16.05 156.506 14.7C157.306 13.35 158.381 12.3 159.731 11.55C161.098 10.7833 162.59 10.4 164.206 10.4C166.056 10.4 167.698 10.8583 169.131 11.775C170.581 12.675 171.631 13.9583 172.281 15.625H168.856ZM177.067 28.175C176.551 28.175 176.117 28 175.767 27.65C175.417 27.3 175.242 26.8667 175.242 26.35C175.242 25.8333 175.417 25.4 175.767 25.05C176.117 24.7 176.551 24.525 177.067 24.525C177.567 24.525 177.992 24.7 178.342 25.05C178.692 25.4 178.867 25.8333 178.867 26.35C178.867 26.8667 178.692 27.3 178.342 27.65C177.992 28 177.567 28.175 177.067 28.175ZM189.198 14C190.281 14 191.248 14.225 192.098 14.675C192.964 15.125 193.639 15.7917 194.123 16.675C194.606 17.5583 194.848 18.625 194.848 19.875V28H192.023V20.3C192.023 19.0667 191.714 18.125 191.098 17.475C190.481 16.8083 189.639 16.475 188.573 16.475C187.506 16.475 186.656 16.8083 186.023 17.475C185.406 18.125 185.098 19.0667 185.098 20.3V28H182.248V14.225H185.098V15.8C185.564 15.2333 186.156 14.7917 186.873 14.475C187.606 14.1583 188.381 14 189.198 14ZM204.333 14C205.4 14 206.341 14.2167 207.158 14.65C207.991 15.0667 208.641 15.5917 209.108 16.225V14.225H211.983V28.225C211.983 29.4917 211.716 30.6167 211.183 31.6C210.65 32.6 209.875 33.3833 208.858 33.95C207.858 34.5167 206.658 34.8 205.258 34.8C203.391 34.8 201.841 34.3583 200.608 33.475C199.375 32.6083 198.675 31.425 198.508 29.925H201.333C201.55 30.6417 202.008 31.2167 202.708 31.65C203.425 32.1 204.275 32.325 205.258 32.325C206.408 32.325 207.333 31.975 208.033 31.275C208.75 30.575 209.108 29.5583 209.108 28.225V25.925C208.625 26.575 207.966 27.125 207.133 27.575C206.316 28.0083 205.383 28.225 204.333 28.225C203.133 28.225 202.033 27.925 201.033 27.325C200.05 26.7083 199.266 25.8583 198.683 24.775C198.116 23.675 197.833 22.4333 197.833 21.05C197.833 19.6667 198.116 18.4417 198.683 17.375C199.266 16.3083 200.05 15.4833 201.033 14.9C202.033 14.3 203.133 14 204.333 14ZM209.108 21.1C209.108 20.15 208.908 19.325 208.508 18.625C208.125 17.925 207.616 17.3917 206.983 17.025C206.35 16.6583 205.666 16.475 204.933 16.475C204.2 16.475 203.516 16.6583 202.883 17.025C202.25 17.375 201.733 17.9 201.333 18.6C200.95 19.2833 200.758 20.1 200.758 21.05C200.758 22 200.95 22.8333 201.333 23.55C201.733 24.2667 202.25 24.8167 202.883 25.2C203.533 25.5667 204.216 25.75 204.933 25.75C205.666 25.75 206.35 25.5667 206.983 25.2C207.616 24.8333 208.125 24.3 208.508 23.6C208.908 22.8833 209.108 22.05 209.108 21.1Z" fill="#2D1D60"/>
<path d="M11.6296 6.85941L3.55933 14.9216C3.22312 15.2574 2.92922 15.6331 2.68416 16.0403C1.15489 18.5812 1.77549 21.865 4.12653 23.6726L15.0093 32.0396C16.905 33.4971 19.5875 33.3232 21.2792 31.6332C23.4885 29.4261 23.012 25.7258 20.3156 24.1504L19.4438 23.6411C16.0259 21.6442 16.1865 16.6521 19.7256 14.8789C21.4127 14.0337 22.478 12.3085 22.478 10.4215V10.2551C22.478 7.35278 20.1252 5 17.2229 5H16.1218C14.4372 5 12.8215 5.66878 11.6296 6.85941Z" fill="#7853F1"/>
</svg>
